<svg width="20" height="20" viewBox="0 0 20 20" fill="none" xmlns="http://www.w3.org/2000/svg">
  <!-- Контейнер усиленный -->
  <rect x="3" y="6" width="14" height="10" rx="1" stroke="currentColor" stroke-width="1.4" fill="none"/>
  <rect x="3" y="6" width="14" height="2.5" fill="currentColor" opacity="0.2"/>
  
  <!-- Двойной замок -->
  <rect x="7" y="9" width="2.5" height="2.5" rx="0.4" fill="currentColor"/>
  <rect x="10.5" y="9" width="2.5" height="2.5" rx="0.4" fill="currentColor"/>
  
  <!-- Медаль ветерана (сверху) -->
  <circle cx="10" cy="3" r="2" fill="#4A90E2" stroke="#2E5C8A" stroke-width="0.5"/>
  <path d="M10 1.8 L10.4 2.7 L11.3 2.5 L10.7 3.2 L11.2 4 L10.3 3.6 L9.5 4.2 L9.7 3.3 L9 2.7 L9.9 2.7 Z" fill="white" opacity="0.9"/>
  
  <!-- Ручки усиленные -->
  <path d="M2.5 9.5 L2.5 12.5" stroke="currentColor" stroke-width="1.4" stroke-linecap="round"/>
  <path d="M17.5 9.5 L17.5 12.5" stroke="currentColor" stroke-width="1.4" stroke-linecap="round"/>
  
  <!-- Усиление по бокам -->
  <line x1="5" y1="8" x2="5" y2="14" stroke="currentColor" stroke-width="0.8" opacity="0.4"/>
  <line x1="15" y1="8" x2="15" y2="14" stroke="currentColor" stroke-width="0.8" opacity="0.4"/>
</svg>
